<svg width="180" height="180" viewBox="0 0 180 180" fill="none" xmlns="http://www.w3.org/2000/svg">
  <rect width="180" height="180" rx="45" fill="url(#gradient)"/>
  <path d="M90 163.69l-10.82-9.86C41.44 125.65 22.5 101.73 22.5 73.13c0-22.95 16.25-39.38 36.56-39.38 13.03 0 25.59 6.08 33.75 15.68 8.16-9.6 20.72-15.68 33.75-15.68 20.31 0 36.56 16.43 36.56 39.38 0 28.6-18.94 52.52-62.31 80.7L90 163.69z" fill="white"/>
  <circle cx="90" cy="84.38" r="14.06" fill="#2563eb"/>
  <path d="M81.56 73.13h16.88v28.13H81.56v-28.13zm-8.44 8.44v11.25h33.75v-11.25H73.12z" fill="white"/>
  <defs>
    <linearGradient id="gradient" x1="0" y1="0" x2="180" y2="180">
      <stop stop-color="#3b82f6"/>
      <stop offset="1" stop-color="#1d4ed8"/>
    </linearGradient>
  </defs>
</svg>