<svg width="32" height="32" viewBox="0 0 32 32" fill="none" xmlns="http://www.w3.org/2000/svg">
  <rect width="32" height="32" rx="8" fill="url(#gradient)"/>
  <path d="M16 28.35l-1.93-1.76C8.72 21.81 4 18.04 4 13c0-4.08 2.89-7 6.5-7 2.32 0 4.55 1.08 6 2.79C17.95 7.08 20.18 6 22.5 6 26.11 6 29 8.92 29 13c0 5.04-4.72 8.81-11.07 13.59L16 28.35z" fill="white"/>
  <circle cx="16" cy="15" r="2.5" fill="#2563eb"/>
  <path d="M14.5 13h3v5h-3v-5zm-1.5 1.5v2h6v-2h-6z" fill="white"/>
  <defs>
    <linearGradient id="gradient" x1="0" y1="0" x2="32" y2="32">
      <stop stop-color="#3b82f6"/>
      <stop offset="1" stop-color="#1d4ed8"/>
    </linearGradient>
  </defs>
</svg>